# Blender 5.1.1
# www.blender.org
mtllib Cartão.mtl
o Cartao
v 0.070000 3.886319 -1.610000
v 0.070000 2.124058 -1.610000
v 0.070000 3.886319 1.610000
v 0.070000 2.124059 1.610000
v -0.070000 3.886319 -1.610000
v -0.070000 2.124058 -1.610000
v -0.070000 3.886319 1.610000
v -0.070000 2.124059 1.610000
v -0.070000 2.005188 -1.398158
v 0.070000 4.005188 -1.398158
v -0.070000 4.005188 -1.398158
v 0.070000 2.005188 -1.398158
v -0.070000 2.005189 1.397560
v 0.070000 4.005189 1.397559
v -0.070000 4.005189 1.397559
v 0.070000 2.005189 1.397560
vn -0.0000 0.8727 0.4883
vn -0.0000 -0.0000 1.0000
vn -0.0000 -0.8727 0.4883
vn -0.0000 -0.0000 -1.0000
vn -0.0000 -0.8721 -0.4894
vn -0.0000 0.8721 -0.4893
vn -0.0000 -1.0000 -0.0000
vn -0.0000 1.0000 -0.0000
vn 1.0000 -0.0000 -0.0000
vn -1.0000 -0.0000 -0.0000
vt 0.734571 0.550694
vt 0.731876 0.550694
vt 0.731876 0.546007
vt 0.734571 0.546007
vt 0.734571 0.512077
vt 0.731876 0.512077
vt 0.731876 0.507390
vt 0.734571 0.507390
vt 0.731876 0.448886
vt 0.731876 0.414956
vt 0.734571 0.414956
vt 0.734571 0.448886
vt 0.734571 0.453563
vt 0.731876 0.453563
vt 0.731876 0.410279
vt 0.734571 0.410279
vt 0.731876 0.356452
vt 0.734571 0.356452
vt 0.104079 0.063657
vt 0.474881 0.063657
vt 0.499893 0.108232
vt 0.499893 0.696487
vt 0.474881 0.741187
vt 0.104079 0.741187
vt 0.079067 0.696487
vt 0.079067 0.108232
vt 0.920933 0.696487
vt 0.895921 0.741187
vt 0.525119 0.741187
vt 0.500107 0.696487
vt 0.500107 0.108232
vt 0.525119 0.063657
vt 0.895921 0.063657
vt 0.920933 0.108232
s 1
usemtl Material.001
f 14/1/1 15/2/1 7/3/1 3/4/1
f 4/5/2 3/4/2 7/3/2 8/6/2
f 13/7/3 16/8/3 4/5/3 8/6/3
f 6/9/4 5/10/4 1/11/4 2/12/4
f 6/9/5 2/12/5 12/13/5 9/14/5
f 1/11/6 5/10/6 11/15/6 10/16/6
f 9/14/7 12/13/7 16/8/7 13/7/7
f 10/16/8 11/15/8 15/17/8 14/18/8
f 2/19/9 1/20/9 10/21/9 14/22/9 3/23/9 4/24/9 16/25/9 12/26/9
f 13/27/10 8/28/10 7/29/10 15/30/10 11/31/10 5/32/10 6/33/10 9/34/10
